:SAMPLES-PER-SECOND 30
:FULLY-SPECIFIED
:DEGREES
281
root  -9.20046 36.8033 31.5497 -175.053 -31.3162 172.036
RightUpLeg  -6.8288 -13.4241 -29.282
RightLeg  37.1628 -8.19525 -6.87254
RightFoot  -7.96611 -0.941571 29.4757
RightToes  -1.74624e-010 0 -3.6325e-017
Spine  26.8403 9.91037 15.1182
Spine1  8.53978 11.8391 9.64132
HEad  -33.1112 -48.898 8.84069
LeftShoulder1  1.34771 -3.00534 -13.7526
LeftArm  10.8918 28.3466 -50.9928
LeftForeArm  132.653 -72.7567 -143.05
LeftHand  -2.84791 -4.02958 34.4063
RightShoulder  0.432429 -0.335004 5.93119
RightArm  -32.1997 39.3377 61.6172
RightForeArm  -10.02 77.556 96.6852
RightHand  -3.79499 5.02729 -40.8317
LeftUpLeg  -30.5557 -5.75273 -0.0775489
LeftLeg  34.9124 -8.16076 -5.71765
LeftFoot  -6.00489 0.390934 -7.59635
LeftToes  -5.82109e-011 1.10366e-010 -8.03124e-011
282
root  -8.82894 37.0571 31.6006 -174.745 -30.5986 171.668
RightUpLeg  -7.28318 -13.8686 -28.4488
RightLeg  36.9788 -9.92072 -8.17811
RightFoot  -7.90393 -0.902932 27.7878
RightToes  -1.74624e-010 0 -3.6325e-017
Spine  25.1908 8.74561 14.1638
Spine1  10.3955 10.2017 9.06129
HEad  -31.3883 -47.0518 8.64439
LeftShoulder1  1.3102 -2.82531 -13.7442
LeftArm  9.05392 25.4247 -53.34
LeftForeArm  130.361 -73.9032 -139.921
LeftHand  -2.60539 -3.62796 32.9393
RightShoulder  0.565035 0.25181 7.5047
RightArm  -24.7474 34.6883 63.1052
RightForeArm  -16.4439 77.6282 88.8589
RightHand  -3.79786 5.19047 -40.2713
LeftUpLeg  -29.431 -5.5764 0.200811
LeftLeg  31.8039 -8.11559 -5.0503
LeftFoot  -4.36721 0.568128 -8.85703
LeftToes  -5.82109e-011 1.10366e-010 -8.03124e-011
283
root  -8.35392 37.4191 31.5893 -174.198 -28.9071 171.719
RightUpLeg  -8.50768 -15.8421 -26.6098
RightLeg  36.6316 -13.5734 -10.8465
RightFoot  -6.80502 -1.13319 26.9606
RightToes  -1.74624e-010 0 -3.6325e-017
Spine  23.2524 7.80555 13.3042
Spine1  12.0137 8.99917 7.93399
HEad  -30.717 -44.4585 8.28009
LeftShoulder1  1.18717 -2.33406 -13.3374
LeftArm  8.27369 21.5958 -55.6597
LeftForeArm  127.99 -74.7615 -137.105
LeftHand  -2.17107 -2.92533 29.9343
RightShoulder  0.737132 0.992823 9.04277
RightArm  -15.9575 28.338 63.778
RightForeArm  -14.4606 77.5381 86.1536
RightHand  -3.67531 5.30193 -38.7137
LeftUpLeg  -28.0623 -5.79599 1.30233
LeftLeg  27.4227 -6.97537 -3.58446
LeftFoot  -2.37473 0.840115 -10.5148
LeftToes  -5.82109e-011 1.10366e-010 -8.03124e-011
284
root  -7.78147 37.7686 31.5362 -173.732 -26.711 172.203
RightUpLeg  -9.8543 -18.1876 -24.138
RightLeg  35.6233 -17.2267 -13.069
RightFoot  -6.05293 -1.25762 25.8972
RightToes  -1.74624e-010 0 -3.6325e-017
Spine  21.4439 7.16056 12.2246
Spine1  12.9132 8.076 7.10302
HEad  -30.2222 -40.8502 7.77404
LeftShoulder1  1.04799 -1.76826 -12.8344
LeftArm  8.55452 17.9337 -57.1392
LeftForeArm  126.265 -75.5607 -134.235
LeftHand  -1.80818 -2.26424 27.2464
RightShoulder  0.869556 1.50696 10.1147
RightArm  -7.11226 21.6849 64.2255
RightForeArm  -5.38588 77.5086 91.3612
RightHand  -3.73746 5.44794 -38.8314
LeftUpLeg  -26.6654 -6.0732 3.1011
LeftLeg  22.894 -4.89382 -1.93891
LeftFoot  -0.322047 1.13721 -11.7459
LeftToes  -5.82109e-011 1.10366e-010 -8.03124e-011
285
root  -7.11171 38.0294 31.4708 -173.725 -24.4705 172.869
RightUpLeg  -10.5437 -19.5776 -21.7667
RightLeg  33.5711 -18.6343 -13.0886
RightFoot  -6.60855 -1.06915 24.3971
RightToes  -1.74624e-010 0 -3.6325e-017
Spine  20.2653 6.43517 10.7821
Spine1  13.0078 6.99626 6.77372
HEad  -28.877 -36.7021 6.86216
LeftShoulder1  0.949001 -1.32065 -12.6046
LeftArm  9.02978 15.2453 -57.5867
LeftForeArm  124.515 -76.3432 -131.041
LeftHand  -1.64148 -1.85714 26.1476
RightShoulder  0.962785 1.78015 11.0775
RightArm  1.62888 16.0994 64.4271
RightForeArm  5.93662 77.2562 101.264
RightHand  -3.56808 4.76767 -39.48
LeftUpLeg  -24.9734 -5.98455 5.12456
LeftLeg  18.8256 -2.92031 -0.742268
LeftFoot  1.62569 1.46255 -12.9048
LeftToes  -5.82109e-011 1.10366e-010 -8.03124e-011
286
root  -6.36963 38.1687 31.425 -173.992 -22.1388 173.432
RightUpLeg  -10.9656 -20.3462 -19.9421
RightLeg  31.3299 -17.0523 -11.1268
RightFoot  -8.23189 -0.692677 23.1333
RightToes  -1.74624e-010 0 -3.6325e-017
Spine  19.6715 5.6224 9.04312
Spine1  12.5404 5.84956 6.47056
HEad  -27.1119 -32.6438 5.64901
LeftShoulder1  0.907154 -1.09304 -12.6704
LeftArm  9.28821 13.6434 -57.1813
LeftForeArm  120.15 -76.6328 -128.856
LeftHand  -1.46405 -1.10391 26.0142
RightShoulder  1.04321 1.96894 12.0138
RightArm  9.90432 12.3524 64.1417
RightForeArm  20.3072 76.5428 111.618
RightHand  -2.82553 3.20879 -37.0456
LeftUpLeg  -23.1077 -5.08456 6.82829
LeftLeg  15.3913 -1.82896 0.116886
LeftFoot  3.24032 1.83429 -14.432
LeftToes  -5.82109e-011 1.10366e-010 -8.03124e-011
287
root  -5.61278 38.2127 31.4115 -174.289 -19.4599 174.011
RightUpLeg  -11.9904 -21.3693 -18.2208
RightLeg  30.2071 -13.7875 -8.74746
RightFoot  -10.02 -0.322364 21.6909
RightToes  -1.74624e-010 0 -3.6325e-017
Spine  19.1738 4.95493 7.36253
Spine1  12.0724 4.94194 5.99307
HEad  -25.908 -28.6596 4.57411
LeftShoulder1  0.918178 -1.13435 -12.7393
LeftArm  9.35718 13.0414 -56.5233
LeftForeArm  112.802 -76.0085 -129.681
LeftHand  -1.14511 0.335762 26.1271
RightShoulder  1.08788 2.08886 12.4473
RightArm  17.3491 10.3709 63.627
RightForeArm  38.1408 75.4055 121.068
RightHand  -2.12986 2.12191 -32.3469
LeftUpLeg  -21.5523 -3.48508 8.33739
LeftLeg  13.0476 -0.850211 1.06191
LeftFoot  4.0743 2.03416 -15.1524
LeftToes  -5.82109e-011 1.10366e-010 -8.03124e-011
288
root  -4.90769 38.2182 31.4101 -174.917 -16.4761 174.875
RightUpLeg  -13.3084 -22.0833 -16.1475
RightLeg  30.3173 -10.9672 -7.08782
RightFoot  -11.2879 -0.0861445 19.5779
RightToes  -1.74624e-010 0 -3.6325e-017
Spine  18.5637 4.44088 6.0095
Spine1  12.2143 4.24193 5.55194
HEad  -25.327 -24.4942 3.86753
LeftShoulder1  0.965939 -1.37988 -12.7214
LeftArm  9.40872 13.1703 -56.1569
LeftForeArm  105.566 -74.7655 -132.815
LeftHand  -0.873052 1.63218 26.7289
RightShoulder  1.07412 2.08934 12.1696
RightArm  23.6299 9.93427 63.1802
RightForeArm  53.523 73.9764 129.127
RightHand  -1.70969 1.63302 -27.9606
LeftUpLeg  -20.3068 -2.59144 10.3303
LeftLeg  12.5316 1.42372 1.96387
LeftFoot  3.55162 1.81339 -13.9623
LeftToes  -5.82109e-011 1.10366e-010 -8.03124e-011
289
root  -4.30899 38.2227 31.3881 -176.286 -13.5695 175.938
RightUpLeg  -13.6515 -21.3823 -14.1229
RightLeg  30.6591 -9.46537 -6.25055
RightFoot  -12.0346 0.0257458 17.614
RightToes  -1.74624e-010 0 -3.6325e-017
Spine  18.0375 3.91362 5.01137
Spine1  13.1094 3.54321 5.29361
HEad  -24.7482 -20.4436 3.40266
LeftShoulder1  1.01083 -1.58771 -12.8048
LeftArm  9.89577 13.3067 -56.1463
LeftForeArm  102.017 -73.8255 -135.279
LeftHand  -0.823569 1.9808 27.7475
RightShoulder  1.03883 2.04016 11.6517
RightArm  28.1351 10.6734 62.7878
RightForeArm  63.0104 72.5063 135.088
RightHand  -1.40547 1.06598 -25.134
LeftUpLeg  -18.8716 -3.17224 12.6071
LeftLeg  14.168 4.13845 2.44278
LeftFoot  1.36837 1.34256 -12.084
LeftToes  -5.82109e-011 1.10366e-010 -8.03124e-011
290
root  -3.84734 38.26 31.3221 -178.075 -11.0326 176.764
RightUpLeg  -12.6573 -19.5906 -12.7758
RightLeg  30.3926 -8.74554 -5.74381
RightFoot  -12.4338 0.0748062 16.6176
RightToes  -1.74624e-010 0 -3.6325e-017
Spine  17.5889 3.37821 4.20746
Spine1  14.2927 2.86168 5.09068
HEad  -23.9104 -17.1141 3.04483
LeftShoulder1  1.01641 -1.56432 -13.0281
LeftArm  10.9428 12.9843 -56.3174
LeftForeArm  102.832 -73.7693 -135.575
LeftHand  -0.942272 1.6328 28.7887
RightShoulder  1.01917 1.99595 11.4215
RightArm  30.2977 11.6573 62.3794
RightForeArm  68.9367 71.4497 138.52
RightHand  -1.3052 0.791677 -24.3657
LeftUpLeg  -17.1742 -4.32461 14.0337
LeftLeg  17.4159 5.36608 2.32483
LeftFoot  -1.96895 0.936905 -11.2824
LeftToes  -5.82109e-011 1.10366e-010 -8.03124e-011
291
root  -3.52967 38.377 31.1974 -179.389 -8.80035 177.064
RightUpLeg  -11.2979 -17.7575 -12.1021
RightLeg  29.2965 -8.40347 -5.3079
RightFoot  -12.311 0.0541549 16.2066
RightToes  -1.74624e-010 0 -3.6325e-017
Spine  16.788 2.96803 3.47542
Spine1  15.1569 2.40745 4.64646
HEad  -22.9687 -14.6377 2.74522
LeftShoulder1  0.998156 -1.43204 -13.2105
LeftArm  11.8708 12.7457 -56.5914
LeftForeArm  105.58 -74.272 -134.463
LeftHand  -1.12712 1.05249 29.7981
RightShoulder  0.997797 1.85332 11.529
RightArm  30.581 11.8404 62.0736
RightForeArm  73.1784 70.9771 139.977
RightHand  -1.30073 0.897529 -23.8793
LeftUpLeg  -15.6822 -3.57387 13.489
LeftLeg  21.1385 3.70324 1.88655
LeftFoot  -5.34171 0.645695 -11.6996
LeftToes  -5.82109e-011 1.10366e-010 -8.03124e-011
292
root  -3.35582 38.6107 31.0065 -179.746 -6.63086 177.003
RightUpLeg  -10.3051 -16.2117 -11.724
RightLeg  27.2173 -8.42806 -4.91125
RightFoot  -11.3055 -0.0818621 15.8575
RightToes  -1.74624e-010 0 -3.6325e-017
Spine  15.3619 2.6791 3.0453
Spine1  15.4613 2.29533 3.71011
HEad  -21.9644 -12.6946 2.39518
LeftShoulder1  1.00212 -1.44461 -13.2428
LeftArm  12.3418 13.3159 -56.825
LeftForeArm  108.139 -74.6008 -133.85
LeftHand  -1.31699 0.454291 30.5701
RightShoulder  0.950838 1.56548 11.6766
RightArm  30.2068 10.9197 62.1515
RightForeArm  74.9698 70.8352 140.433
RightHand  -1.23706 0.837495 -22.9607
LeftUpLeg  -14.564 -1.87516 11.8014
LeftLeg  23.9874 1.03809 0.837219
LeftFoot  -8.08374 0.427235 -13.3925
LeftToes  -5.82109e-011 1.10366e-010 -8.03124e-011
293
root  -3.30954 38.9356 30.77 -179.478 -4.4032 176.891
RightUpLeg  -9.42232 -14.7758 -11.4738
RightLeg  24.0602 -8.427 -4.31997
RightFoot  -9.42628 -0.332577 15.8889
RightToes  -1.74624e-010 0 -3.6325e-017
Spine  13.6612 2.43815 3.11571
Spine1  15.3029 2.44605 2.35518
HEad  -20.8459 -11.0634 1.92297
LeftShoulder1  1.02894 -1.60229 -13.1341
LeftArm  13.067 14.4146 -56.7299
LeftForeArm  110.659 -74.4453 -134.807
LeftHand  -1.46695 -0.0487448 30.8845
RightShoulder  0.892592 1.2746 11.5935
RightArm  29.9028 9.35341 62.7211
RightForeArm  74.8015 70.7868 140.54
RightHand  -1.24567 0.96945 -22.6472
LeftUpLeg  -13.3259 0.110252 9.66576
LeftLeg  24.7451 -3.14365 -1.22992
LeftFoot  -10.0216 0.256486 -16.9683
LeftToes  -5.82109e-011 1.10366e-010 -8.03124e-011
294
root  -3.34669 39.2625 30.5353 -179.06 -2.08301 176.842
RightUpLeg  -8.48735 -13.6606 -11.4327
RightLeg  20.4618 -7.73696 -3.31902
RightFoot  -7.19906 -0.651682 16.5347
RightToes  -1.74624e-010 0 -3.6325e-017
Spine  12.2351 2.29945 3.3237
Spine1  14.7514 2.68924 1.08518
HEad  -19.7314 -9.61747 1.41355
LeftShoulder1  1.03211 -1.67783 -12.8769
LeftArm  14.6719 15.2263 -56.2046
LeftForeArm  113.48 -74.0508 -136.516
LeftHand  -1.53651 -0.306865 30.8809
RightShoulder  0.841018 1.0569 11.3302
RightArm  29.5056 7.78898 63.451
RightForeArm  74.3931 70.6781 140.778
RightHand  -1.4034 1.62133 -23.155
LeftUpLeg  -11.7296 1.76368 7.52476
LeftLeg  23.3441 -8.2652 -3.55073
LeftFoot  -10.6569 0.1924 -20.7092
LeftToes  -5.82109e-011 1.10366e-010 -8.03124e-011
295
root  -3.41729 39.5138 30.3357 -178.532 0.494354 176.886
RightUpLeg  -8.12528 -13.2376 -11.5192
RightLeg  17.6105 -6.14357 -2.05313
RightFoot  -5.21939 -0.967344 17.3049
RightToes  -1.74624e-010 0 -3.6325e-017
Spine  11.1159 2.35345 3.04469
Spine1  13.9134 2.86543 0.420286
HEad  -18.8075 -7.96004 0.871041
LeftShoulder1  0.992303 -1.55835 -12.5272
LeftArm  16.6559 15.5331 -55.4293
LeftForeArm  115.733 -73.7072 -137.886
LeftHand  -1.52971 -0.32814 30.6417
RightShoulder  0.787827 0.814222 11.1156
RightArm  28.709 6.67084 63.9383
RightForeArm  73.6066 70.4924 141.176
RightHand  -1.44059 1.80234 -23.1656
LeftUpLeg  -10.2023 2.75201 5.74221
LeftLeg  20.8359 -10.734 -4.17852
LeftFoot  -10.0662 0.285597 -20.4625
LeftToes  -5.82109e-011 1.10366e-010 -8.03124e-011
